<svg xmlns="http://www.w3.org/2000/svg" xmlns:xlink="http://www.w3.org/1999/xlink" fill="none" version="1.1" width="32" height="32" viewBox="0 0 32 32"><defs><linearGradient x1="-0.05392921715974808" y1="-0.049691926687955856" x2="1" y2="1" id="master_svg0_504_94248"><stop offset="0%" stop-color="#384D6D" stop-opacity="1"/><stop offset="100%" stop-color="#020C23" stop-opacity="1"/></linearGradient><clipPath id="master_svg1_546_88378"><rect x="0" y="0" width="32" height="32" rx="16"/></clipPath><clipPath id="master_svg2_546_88381"><rect x="5.152587890625" y="5.1525421142578125" width="21.694915771484375" height="21.694915771484375" rx="0"/></clipPath><filter id="master_svg3_546_88382" filterUnits="objectBoundingBox" color-interpolation-filters="sRGB" x="-0.33039266141381635" y="-0.32544056213183037" width="1.6607853228276328" height="1.6508811242636607"><feFlood flood-opacity="0" result="BackgroundImageFix"/><feColorMatrix in="SourceAlpha" type="matrix" values="0 0 0 0 0 0 0 0 0 0 0 0 0 0 0 0 0 0 127 0"/><feOffset dy="0" dx="0"/><feGaussianBlur stdDeviation="1.5"/><feColorMatrix type="matrix" values="0 0 0 0 0.08854825049638748 0 0 0 0 0.13428327441215515 0 0 0 0 0.244047611951828 0 0 0 1 0"/><feBlend mode="normal" in2="BackgroundImageFix" result="effect1_dropShadow"/><feBlend mode="normal" in="SourceGraphic" in2="effect1_dropShadow" result="shape"/></filter><filter id="master_svg4_546_88387" filterUnits="objectBoundingBox" color-interpolation-filters="sRGB" x="-0.5822368174471446" y="-0.9619565429289202" width="2.1644736348942892" height="2.92391308585784"><feFlood flood-opacity="0" result="BackgroundImageFix"/><feColorMatrix in="SourceAlpha" type="matrix" values="0 0 0 0 0 0 0 0 0 0 0 0 0 0 0 0 0 0 127 0"/><feOffset dy="0" dx="0"/><feGaussianBlur stdDeviation="1.5"/><feColorMatrix type="matrix" values="0 0 0 0 0.08854825049638748 0 0 0 0 0.13428327441215515 0 0 0 0 0.244047611951828 0 0 0 1 0"/><feBlend mode="normal" in2="BackgroundImageFix" result="effect1_dropShadow"/><feBlend mode="normal" in="SourceGraphic" in2="effect1_dropShadow" result="shape"/></filter></defs><g clip-path="url(#master_svg1_546_88378)"><rect x="0" y="0" width="32" height="32" rx="16" fill="url(#master_svg0_504_94248)" fill-opacity="1"/><g clip-path="url(#master_svg2_546_88381)"><path d="M14.952676734533691,19.921550380096434C15.071824534533691,20.475778380096436,14.932586634533692,20.919026380096433,14.932586634533692,20.919026380096433C14.932586634533692,20.919026380096433,15.81112913453369,21.125103380096434,16.21178053453369,22.086829380096436L16.211781534533692,20.802524380096436L18.037806534533694,20.802524380096436L18.037806534533694,24.158610380096434L16.25663133453369,24.158610380096434C16.090337234533692,24.617339380096436,15.810225534533691,24.903600380096435,15.546966034533693,25.080611380096435L26.43677983453369,25.080611380096435L26.43677983453369,24.158610380096434L25.306866834533693,24.158610380096434L25.306866834533693,19.921550380096434L14.952676734533691,19.921550380096434ZM10.23183493453369,19.190714380096438C10.245795734533692,19.204422380096435,10.259662734533691,19.218514380096437,10.273427034533691,19.232998380096436C10.273427034533691,19.232998380096436,10.88506793453369,18.198150380096436,12.074178934533691,18.051190380096436L13.221727834533691,16.889083380096437L13.406128434533692,17.073482380096436L13.58591893453369,15.956939180096436L13.221727834533691,16.325739380096437L12.04894163453369,15.137739680096436L14.394052534533692,15.137739680096436L13.92244863453369,15.618565080096436L15.602798034533691,15.618565080096436L15.518895134533691,15.137739680096436L17.538542734533692,15.137739680096436L17.538542734533692,15.618565080096436L18.16872973453369,15.618565080096436L18.16872973453369,14.499715280096435L15.452051634533692,12.273540980096435L15.452051634533692,10.951851880096434L17.538542734533692,10.951851880096434L17.538542734533692,12.048573480096437L18.16872973453369,12.048573480096437L18.16872973453369,10.315670980096435L15.452050734533692,8.086731080096435L15.452050734533692,7.616971310096435C15.439811734533691,7.062275080096436,14.976186734533691,6.624788148096435,14.421713334533692,6.6447203574364355L12.010678334533692,6.6447203574364355C11.460363434533692,6.626622630096436,11.001652234533692,7.062304880096436,10.99140523453369,7.612822290096435L10.99140523453369,8.079355280096436L8.276571035383691,10.308294980096436L8.276571035383691,12.045346780096436L8.904454174533692,12.045346780096436L8.904454174533692,10.949086180096437L10.99140523453369,10.949086180096437L10.99140523453369,12.267086980096437L8.276571035383691,14.493722480096435L8.276571035383691,16.233540080096436L8.905837294533692,16.233540080096436L8.905837294533692,15.140506280096435L10.925943334533692,15.140506280096435L10.23183493453369,19.190714380096438ZM14.80555053453369,19.483600380096433C14.617068334533691,19.081109380096436,14.260899534533692,18.666177380096435,13.610265234533692,18.344746380096435L13.981936434533692,16.036413680096437L13.983301634533692,16.026092980096436L21.83737483453369,16.026092980096436L21.97567583453369,14.577167080096435L23.36374883453369,14.327304380096436L23.418146834533694,16.026092980096436L25.60559983453369,16.026092980096436L26.06060483453369,19.483600380096433L14.80555053453369,19.483600380096433ZM13.230947934533692,8.709082380096437L14.147418034533692,7.773711580096435L12.30986783453369,7.770945580096436L13.230947934533692,8.709082380096437ZM12.100573534533691,9.861584680096435L12.952042134533691,8.993519780096435L12.100573034533692,8.126377180096435L12.100573534533691,9.861584680096435ZM14.34149933453369,8.143895380096435L13.50800943453369,8.993981080096436L14.34149933453369,9.844527480096435L14.34149933453369,8.143895380096435ZM9.21470785453369,10.308294980096436L10.988178534533692,10.308294980096436L10.988178534533692,8.852914780096436L9.21470785453369,10.308294980096436ZM15.45251083453369,8.857524680096436L15.45251083453369,10.308294980096436L17.222755434533692,10.308294980096436L15.45251083453369,8.857524680096436ZM13.230947934533692,9.277496580096436L12.219973134533692,10.306450580096435L14.24054003453369,10.306450580096435L13.230947934533692,9.277496580096436ZM13.23094843453369,12.335776280096436L14.189830334533692,10.950007880096436L12.269760634533691,10.950007880096436L13.23094843453369,12.335776280096436ZM12.100574534533692,13.965414480096435L12.99076743453369,12.683371080096435L12.100574534533692,11.399944280096435L12.100574534533692,13.965414480096435ZM14.34149933453369,11.423916780096436L13.470208134533692,12.682449380096436L14.34149933453369,13.940981880096436L14.34149933453369,11.423916780096436ZM13.230947934533692,13.027738580096436L12.216746334533692,14.493722480096435L14.245149634533691,14.493722480096435L13.230947934533692,13.027738580096436ZM9.21332490453369,14.493261380096435L10.988178534533692,14.493261380096435L10.988178534533692,13.036498580096435L9.21332490453369,14.493261380096435ZM15.452971934533691,13.040646980096437L15.452971934533691,14.494183080096436L17.222755434533692,14.494183080096436L15.452971934533691,13.040646980096437ZM11.967806134533692,15.619485380096435L11.55797643453369,18.009775380096436L12.943745134533692,16.606950280096434L11.967806134533692,15.619485380096435ZM22.50490283453369,20.802524380096436L20.68118383453369,20.802524380096436L20.68118383453369,23.007491380096436L22.50490283453369,23.007491380096436L22.50490283453369,20.802524380096436Z" fill-rule="evenodd" fill="#FFFFFF" fill-opacity="1" filter="url(#master_svg3_546_88382)"/><path d="M14.530626271875,21.30514808574219C14.530626271875,21.30514808574219,15.035036071875,19.793309505742187,13.161512371875,19.03738969574219C11.287988171875,18.31926637574219,10.315196471875,19.868901385742188,10.315196471875,19.868901385742188C9.666668871875,19.226369885742187,8.765935871875,19.490941945742186,8.765935871875,19.490941945742186C7.6129977718749995,19.831105945742188,7.829173571875,21.002780485742186,7.829173571875,21.002780485742186C7.252704371875,20.81380018574219,5.559326171875,21.040576885742187,5.559326171875,22.892579585742187C5.559326171875,24.744582685742188,7.000499171875,25.084745885742187,7.000499171875,25.084745885742187L14.494599371875,25.084745885742187C14.494599371875,25.084745885742187,15.863712171875,24.89576578574219,15.863712171875,23.27053878574219C15.899743171875,21.607516485742188,14.530626271875,21.30514808574219,14.530626271875,21.30514808574219Z" fill="#FFFFFF" fill-opacity="1" filter="url(#master_svg4_546_88387)"/></g></g></svg>